# xmcd CD database file
#
# Track frame offsets:
#	150
#	14510
#	30500
#	47485
#	62957
#	75482
#	87102
#
# Disc length: 1395 seconds
#
# Revision: 0
# Processed by: cddbd v1.5.2PL0 Copyright (c) Steve Scherf et al.
# Submitted via: CDex 1.70beta2
#
DISCID=49057107
DTITLE=Junkyard Scientists - Junkyard Scientists
DYEAR=2008
DGENRE=Jazz
TTITLE0=Domino
TTITLE1=Fit Like A Glove
TTITLE2=Pullin' On My Strings
TTITLE3=Mistress
TTITLE4=Pocket Size
TTITLE5=Da Da Dum
TTITLE6=Honeycomb
EXTD=YEAR: 2008
EXTT0=
EXTT1=
EXTT2=
EXTT3=
EXTT4=
EXTT5=
EXTT6=
PLAYORDER=
